<svg id="Layer_1" data-name="Layer 1" xmlns="http://www.w3.org/2000/svg" viewBox="0 0 660.78 317.41"><defs><style>.cls-1{fill:#9b7d29;}</style></defs><path class="cls-1" d="M722.22,302.4h-6.45L656.43,167a23.07,23.07,0,0,0-20.34-12.17H133.49a28.37,28.37,0,0,0-28.34,28.35v51.69a28.37,28.37,0,0,0,28.34,28.34L221.38,429a23.06,23.06,0,0,0,20.34,12.17H706.51a28.38,28.38,0,0,0,28.35-28.34V315A12.65,12.65,0,0,0,722.22,302.4ZM330.67,229.66a5.27,5.27,0,0,1-5.27,5.27h-8.79l.32,179.26a5.28,5.28,0,0,1-5.09,3.9H246.28a5.28,5.28,0,0,1-5.08-3.87L142.43,234.93h-8.94a5.28,5.28,0,0,1-5.27-5.27V183.18a5.28,5.28,0,0,1,5.27-5.27H218a5.27,5.27,0,0,1,5.27,5.27v46.48a5.27,5.27,0,0,1-5.27,5.27h-8.1l47.32,91.55.4-91.55h-9.13a5.27,5.27,0,0,1-5.27-5.27V183.18a5.27,5.27,0,0,1,5.27-5.27H325.4a5.27,5.27,0,0,1,5.27,5.27Zm190.77-.12a5.28,5.28,0,0,1-5.27,5.27l-84.63.12v34.59h42a5.27,5.27,0,0,1,5.27,5.27v46.42a5.27,5.27,0,0,1-5.27,5.27h-42v34.66h9.09a5.26,5.26,0,0,1,5.27,5.27v46.42a5.26,5.26,0,0,1-5.27,5.26h-77.1a5.26,5.26,0,0,1-5.26-5.26V366.41a5.26,5.26,0,0,1,5.26-5.27h9V234.93h-9a5.27,5.27,0,0,1-5.26-5.27V183.18a5.27,5.27,0,0,1,5.26-5.27H516.17a5.27,5.27,0,0,1,5.27,5.27ZM711.78,412.83a5.26,5.26,0,0,1-5.27,5.26H554.31a5.27,5.27,0,0,1-5.27-5.26V366.41a5.27,5.27,0,0,1,5.27-5.27h9.28V234.93h-9a5.27,5.27,0,0,1-5.26-5.27V183.18a5.27,5.27,0,0,1,5.26-5.27h76.18a5.28,5.28,0,0,1,5.27,5.27v46.48a5.28,5.28,0,0,1-5.27,5.27h-9V361.14h29.62V331.75a5.26,5.26,0,0,1,5.27-5.27h49.75a5.26,5.26,0,0,1,5.27,5.27Zm10.34-90.54a7.27,7.27,0,1,1,7.26-7.26A7.25,7.25,0,0,1,722.12,322.29Z" transform="translate(-89.61 -139.29)"/><path class="cls-1" d="M723.41,313.5a.81.81,0,0,0-.37-.71,2.5,2.5,0,0,0-1.19-.28h-1.4l0,2.08h1.25a2.68,2.68,0,0,0,1.28-.2A.88.88,0,0,0,723.41,313.5Z" transform="translate(-89.61 -139.29)"/><path class="cls-1" d="M722.12,309.2A5.84,5.84,0,1,0,728,315,5.82,5.82,0,0,0,722.12,309.2Zm1.42,9.74-.62-1.23a10.48,10.48,0,0,0-.73-1.23,1.85,1.85,0,0,0-.61-.54,2.06,2.06,0,0,0-.77-.15h-.4l0,3.14-1.55,0,.1-7.63,3.6.05a2.8,2.8,0,0,1,1.4.29,1.74,1.74,0,0,1,.86.76,2.17,2.17,0,0,1,.28,1.14,1.88,1.88,0,0,1-.55,1.39,2.6,2.6,0,0,1-1.52.7,1.92,1.92,0,0,1,.79.56,11,11,0,0,1,.81,1.26l.86,1.56Z" transform="translate(-89.61 -139.29)"/><path class="cls-1" d="M636.09,146.5a31.38,31.38,0,0,1,27.68,16.56c.11.2.2.4.29.6l57.15,130.4h1a21,21,0,0,1,21,21v97.8a36.71,36.71,0,0,1-36.68,36.67H241.72A31.35,31.35,0,0,1,214,432.93L128.28,271.18a36.75,36.75,0,0,1-31.47-36.31V183.18a36.72,36.72,0,0,1,36.68-36.68h502.6m0-7.21H133.49a43.93,43.93,0,0,0-43.88,43.89v51.69a44.14,44.14,0,0,0,33.93,42.74l84.13,158.7a38.58,38.58,0,0,0,34.05,20.4H706.51a43.93,43.93,0,0,0,43.88-43.88V315A28.2,28.2,0,0,0,726,287.12L670.66,160.77c-.18-.39-.36-.78-.56-1.14a38.55,38.55,0,0,0-34-20.34Z" transform="translate(-89.61 -139.29)"/></svg>